<svg width="75" height="98" viewBox="0 0 75 98" fill="none" xmlns="http://www.w3.org/2000/svg">
<path d="M37.0831 98L6.75701 90.137L0 19.2677H74.2576L67.4933 90.1268L37.0831 98Z" fill="#00FFC2"/>
<path d="M61.7016 85.6175L67.4823 25.0658H37.1343V91.9729L61.7016 85.6175Z" fill="#3E9A84"/>
<path d="M15.5105 51.3384L16.3442 60.0287H37.1491V51.3384H15.5105ZM13.8359 33.7458L14.6805 42.4362H37.1454V33.7458H13.8176H13.8359ZM37.1454 73.912H37.1052L26.7503 71.2967L26.0885 64.3636H16.7391L18.0408 78.011L37.0832 82.9647H37.1271L37.1454 73.912Z" fill="#A9A9A9"/>
<path d="M17.4775 0H28.7356V4.40327H22.1833V8.80654H28.7356V13.2098H17.4775V0ZM31.0062 0H42.2642V3.82893H35.6973V4.59471H42.2496V13.4012H30.9879V9.38087H37.5402V8.61509H30.9879V0H31.0062ZM44.5348 0H55.7929V3.82893H49.2077V4.59471H55.7599V13.4012H44.4983V9.38087H51.0505V8.61509H44.4983V0H44.5348Z" fill="#00FFC2"/>
<path d="M58.7069 51.3384L60.3852 33.7458H37.083V42.4362H50.1838L49.3392 51.3247H37.083V60.015H48.5312L47.4342 71.2967L37.083 73.9188V82.9612L56.1401 78.0212L56.2791 76.5512L58.4729 53.6665L58.6996 51.3316L58.7069 51.3384Z" fill="white"/>
</svg>
