<svg width="40" height="41" viewBox="0 0 40 41" fill="none" xmlns="http://www.w3.org/2000/svg">
<path d="M20 0C8.96638 0 0 9.19054 0 20.5C0 31.8095 8.96638 41 20 41C31.0336 41 40 31.8095 40 20.5C40 9.19054 31.0336 0 20 0ZM20 1.78261C30.0933 1.78261 38.2609 10.1543 38.2609 20.5C38.2609 20.5636 38.2564 20.6263 38.2558 20.6898C37.6996 20.6371 37.057 20.5871 36.2398 20.5574C35.0844 20.5155 33.628 20.5276 31.9769 20.6114C32.0381 20.1744 32.081 19.7311 32.0822 19.2762C32.1664 17.6071 31.6196 16.0457 30.7303 14.6665C30.9451 13.9056 31.1972 12.9375 31.2602 11.8394C31.332 10.5877 31.2266 9.19983 30.2463 8.26197L29.9949 8.02174H29.6518C27.3187 8.02174 25.7218 9.02286 24.7452 9.81653C23.3352 9.25711 21.7498 8.91304 20 8.91304C18.2403 8.91304 16.6396 9.26191 15.1715 9.82002C14.1956 9.02596 12.5972 8.02174 10.2615 8.02174H9.92018L9.66882 8.26023C8.71387 9.16913 8.62589 10.519 8.68546 11.7645C8.73799 12.8629 8.97542 13.8617 9.18648 14.6595C8.28216 16.0656 7.73947 17.6675 7.73947 19.2518C7.73947 19.7078 7.78084 20.1525 7.84137 20.5905C6.27115 20.5159 4.87139 20.5015 3.76019 20.5418C2.94306 20.5714 2.30038 20.621 1.74423 20.6741C1.74371 20.6158 1.73913 20.5584 1.73913 20.5C1.73913 10.1543 9.90666 1.78261 20 1.78261ZM10.7796 9.92098C12.534 10.0914 13.8539 10.8944 14.465 11.4512L14.8726 11.8202L15.3753 11.6096C16.7505 11.0292 18.2843 10.6957 20 10.6957C21.7157 10.6957 23.2499 11.0309 24.5211 11.6009L25.0306 11.8307L25.4467 11.4512C26.058 10.8942 27.3802 10.091 29.1355 9.92098C29.3689 10.3176 29.5717 10.8816 29.5228 11.7349C29.4641 12.7561 29.1977 13.8684 28.9963 14.529L28.8655 14.9589L29.1253 15.3228C29.9858 16.5254 30.4245 17.8269 30.3499 19.2031L30.3482 19.2275V19.2518C30.3482 21.476 29.5668 23.2562 27.9025 24.5753C26.2383 25.8944 23.611 26.7391 19.9134 26.7391C16.2158 26.7391 13.5868 25.8943 11.9226 24.5753C10.2583 23.2562 9.4786 21.476 9.4786 19.2518C9.4786 17.9463 9.93853 16.5102 10.788 15.3228L11.0428 14.9676L10.9205 14.5446C10.719 13.8424 10.472 12.7047 10.4229 11.6775C10.382 10.8231 10.5793 10.283 10.7796 9.92098ZM5.98675 21.4105C6.60127 21.4185 7.30562 21.4525 8.01121 21.4888C8.07862 21.7667 8.1555 22.0401 8.24898 22.307C5.37302 22.3691 3.2215 22.6656 1.89538 22.9198C1.83931 22.4738 1.79465 22.0241 1.7697 21.5689C2.74974 21.4735 4.1313 21.3862 5.98675 21.4105ZM34.0132 21.4244C35.8674 21.4002 37.2485 21.4877 38.2286 21.5828C38.2037 22.0316 38.1598 22.4748 38.1046 22.9145C36.7311 22.6563 34.5215 22.3599 31.571 22.3122C31.6626 22.0506 31.7388 21.7819 31.8054 21.5097C32.5837 21.4669 33.3431 21.4331 34.0132 21.4244ZM8.61923 23.1913C9.13813 24.2571 9.87958 25.2088 10.8594 25.9854C12.199 27.0471 13.9405 27.7889 16.0666 28.1858C15.7884 28.4787 15.5355 28.8004 15.3108 29.1397L15.2582 29.0927C15.2629 29.0871 14.8259 29.3113 14.1729 29.3713C13.5199 29.4312 12.7144 29.413 12.0007 29.413C10.9355 29.413 10.4663 28.8972 9.71637 27.9577C9.30112 27.384 8.79487 26.9195 8.30333 26.5668C7.80002 26.2057 7.37066 25.9508 6.83933 25.86L6.768 25.8478H6.69497C6.28918 25.8478 5.89651 25.8779 5.52989 26.3074C5.34658 26.5221 5.22024 26.9197 5.30231 27.2562C5.38438 27.5926 5.59205 27.7994 5.77785 27.9264C6.96631 28.7385 7.17634 30.3458 7.9212 31.7753C8.61678 33.196 10.118 33.8696 11.6525 33.8696H13.913V38.1503C7.7981 35.9379 3.18668 30.4867 2.02785 23.8006C3.35907 23.5436 5.58829 23.2346 8.61923 23.1913ZM31.2024 23.1983C34.3005 23.2255 36.5922 23.5341 37.9738 23.7954C36.8166 30.4839 32.2035 35.9373 26.087 38.1503V33.5127C26.087 32.1004 25.6345 30.543 24.8471 29.2442C24.6081 28.8499 24.3269 28.4769 24.0132 28.1422C26.0265 27.7346 27.6803 27.0055 28.9674 25.9854C29.9451 25.2105 30.6849 24.2617 31.2024 23.1983ZM18.8689 28.6105H21.3043C22.0111 28.6105 22.7656 29.1879 23.3696 30.1842C23.9735 31.1806 24.3478 32.5185 24.3478 33.5127V38.6812C22.9543 39.0295 21.4989 39.2174 20 39.2174C18.5011 39.2174 17.0457 39.0295 15.6522 38.6812V33.5127C15.6522 32.5405 16.059 31.2057 16.7035 30.2051C17.3479 29.2045 18.1621 28.6105 18.8689 28.6105ZM8.96399 29.6637C9.71684 30.4641 10.6283 31.1957 12.0007 31.1957C12.6782 31.1957 13.5239 31.2207 14.3274 31.1469C14.3303 31.1466 14.3331 31.1454 14.3359 31.1452C14.2301 31.4571 14.1511 31.771 14.0846 32.087H11.6525C10.58 32.087 9.82241 31.6898 9.47351 30.9746L9.46671 30.9624L9.46162 30.9519C9.31866 30.6798 9.13099 30.1355 8.96399 29.6637Z" fill="#00FFC2"/>
</svg>
