<svg width="78" height="79" viewBox="0 0 78 79" fill="none" xmlns="http://www.w3.org/2000/svg">
<path d="M0 0H77.2681V79H0V0Z" fill="#00FFC2"/>
<path d="M20.3203 66.019L26.2335 62.3594C27.3756 64.4278 28.4121 66.1781 30.9018 66.1781C33.2888 66.1781 34.7921 65.2234 34.7921 61.5128V36.2682H42.053V61.6149C42.053 69.3032 37.6489 72.8037 31.2131 72.8037C25.4055 72.8037 22.035 69.7265 20.3232 66.0159L20.3203 66.019ZM45.9961 65.2204L51.9063 61.72C53.4625 64.3198 55.4854 66.2231 59.0644 66.2231C62.0739 66.2231 63.9911 64.686 63.9911 62.5635C63.9911 60.0178 62.0211 59.1171 58.7063 57.6311L56.8918 56.8356C51.6539 54.557 48.1776 51.693 48.1776 45.6468C48.1776 40.0779 52.3262 35.8359 58.809 35.8359C63.4245 35.8359 66.7364 37.4811 69.1292 41.7741L63.4773 45.4877C62.2325 43.2061 60.8848 42.3054 58.809 42.3054C56.6833 42.3054 55.3327 43.6834 55.3327 45.4877C55.3327 47.7152 56.6804 48.6158 59.7926 49.9908L61.6071 50.7864C67.7728 53.4882 71.2549 56.2471 71.2549 62.4525C71.2549 69.1351 66.1198 72.7947 59.2171 72.7947C52.4642 72.7947 48.1188 69.4924 46.0049 65.2114" fill="white"/>
</svg>
