<svg width="121" height="86" viewBox="0 0 121 86" fill="none" xmlns="http://www.w3.org/2000/svg">
<path d="M43.1598 32.1566L30.8496 44.4156C30.388 44.8716 30.1045 45.7205 30.1045 46.6371V71.1685C30.1045 72.0851 30.388 72.9295 30.8496 73.39L43.1623 85.658C43.6214 86.114 44.1909 86.114 44.65 85.658L56.9602 73.39C57.4168 72.9295 57.7002 72.0851 57.7002 71.1685V46.6371C57.7002 45.7205 57.4167 44.8761 56.9551 44.4156L44.6475 32.1566C44.4167 31.9264 44.1583 31.8135 43.9024 31.8135C43.644 31.8135 43.3881 31.9264 43.1573 32.1566H43.1598ZM106.497 54.2408L104.445 56.2817C104.367 56.3585 104.322 56.4984 104.322 56.6519V60.7428C104.322 60.8963 104.37 61.0363 104.445 61.113L106.497 63.1584C106.575 63.2352 106.668 63.2352 106.745 63.1584L108.798 61.113C108.873 61.0363 108.92 60.8963 108.92 60.7428V56.6519C108.92 56.4984 108.873 56.3585 108.795 56.2817L106.743 54.2408C106.705 54.2002 106.663 54.1821 106.62 54.1821C106.577 54.1821 106.535 54.2002 106.497 54.2408Z" fill="#00FFC2"/>
<path d="M89.6889 6.15777L83.6956 0.138922C83.5074 -0.0507185 83.2766 -0.0462021 83.091 0.152469C82.9053 0.351141 82.7899 0.707845 82.7899 1.09616L82.7874 37.453L77.2607 31.9489C77.0299 31.7187 76.7715 31.6058 76.5156 31.6058C76.2598 31.6058 76.0014 31.7187 75.7706 31.9489H75.7731L63.4629 44.2079C63.0013 44.6639 62.7178 45.5128 62.7178 46.4249V70.9563C62.7178 71.8729 63.0013 72.7172 63.4629 73.1778L75.7756 85.4458C76.2347 85.9018 76.8041 85.9018 77.2632 85.4458L89.5735 73.1778C90.03 72.7218 90.3135 71.8729 90.3135 70.9563V8.07224C90.3135 7.27755 90.0727 6.54608 89.6889 6.15777ZM82.4512 65.2806L76.8568 70.857C76.6486 71.0647 76.3902 71.0647 76.182 70.857L70.5851 65.2806C70.3718 65.0729 70.2439 64.6846 70.2439 64.2692V53.1165C70.2439 52.7011 70.3718 52.3173 70.5826 52.1051L76.1795 46.5332H76.177C76.2823 46.4294 76.3977 46.3797 76.5156 46.3797C76.6336 46.3797 76.749 46.4339 76.8543 46.5332L82.4487 52.1051C82.6595 52.3173 82.7874 52.7056 82.7874 53.121V64.2737C82.7874 64.6846 82.6595 65.0729 82.4512 65.2806Z" fill="#00FFC2"/>
<path d="M43.1598 32.1566L30.1045 71.1685C30.1045 72.0851 30.388 72.9295 30.8496 73.39L43.1623 85.658C43.6214 86.114 44.1909 86.114 44.65 85.658L57.7002 46.6371C57.7002 45.7205 57.4167 44.8761 56.9551 44.4156L44.6474 32.1566C44.4166 31.9264 44.1583 31.8135 43.9024 31.8135C43.644 31.8135 43.3881 31.9264 43.1573 32.1566" fill="#00FFC2"/>
<path d="M43.1598 32.1566L30.8496 44.4156C30.388 44.8716 30.1045 45.7205 30.1045 46.6371L43.1598 85.658C43.6189 86.114 44.1884 86.114 44.6474 85.658L56.9577 73.39C57.4167 72.9295 57.7002 72.0851 57.7002 71.1685L44.6474 32.1566C44.4166 31.9264 44.1583 31.8135 43.9024 31.8135C43.644 31.8135 43.3881 31.9264 43.1573 32.1566" fill="#C5C5C5"/>
<path d="M119.673 44.2078L107.365 31.9489C107.134 31.7186 106.876 31.6057 106.62 31.6057C106.364 31.6057 106.106 31.7186 105.875 31.9489H105.877L93.5671 44.2078C93.108 44.6639 92.822 45.5308 92.822 46.479V70.9111C92.822 71.8548 93.108 72.7262 93.5671 73.1823L105.88 85.4502C106.341 85.9108 106.906 85.9108 107.368 85.4502L113.045 79.7926C113.564 79.2733 113.562 77.9323 113.04 77.4176L100.687 65.2851C100.479 65.0728 100.348 64.68 100.348 64.2556V53.1209C100.348 52.7055 100.474 52.3217 100.674 52.1231L106.281 46.5422H106.279C106.384 46.4384 106.5 46.3887 106.617 46.3887C106.735 46.3887 106.851 46.4429 106.956 46.5422L112.563 52.1276C112.764 52.3263 112.889 52.7101 112.889 53.1255V62.2102C112.889 62.5985 113.005 62.9597 113.193 63.1539C113.381 63.3435 113.612 63.3435 113.8 63.1493L119.816 56.8596C120.187 56.4713 120.418 55.7533 120.418 54.9767V46.488C120.418 45.5353 120.132 44.6639 119.673 44.2078ZM26.8507 44.2078L14.543 31.9489C14.3122 31.7186 14.0538 31.6057 13.7979 31.6057C13.542 31.6057 13.2836 31.7186 13.0528 31.9489H13.0553L0.745085 44.2078C0.285992 44.6639 0 45.5308 0 46.479V80.1854C0 80.5737 0.1154 80.935 0.303553 81.1291C0.491706 81.3188 0.722507 81.3187 0.91066 81.1246L6.92653 74.8348C7.29782 74.4465 7.52611 73.7286 7.52611 72.952V53.1164C7.52611 52.701 7.65155 52.3172 7.85224 52.1185L13.4592 46.5377C13.5646 46.4338 13.68 46.3842 13.7979 46.3842C13.9158 46.3842 14.0312 46.4383 14.1365 46.5377L19.7435 52.1231C19.9442 52.3217 20.0696 52.7055 20.0696 53.1209V72.9565C20.0696 73.7331 20.2979 74.451 20.6717 74.8394L26.6876 81.1291C26.8757 81.3233 27.1065 81.3233 27.2947 81.1336C27.4803 80.935 27.5957 80.5737 27.5957 80.1854V46.4835C27.5957 45.5353 27.3098 44.6639 26.8507 44.2078Z" fill="#00FFC2"/>
</svg>
