<svg width="110" height="92" viewBox="0 0 110 92" fill="none" xmlns="http://www.w3.org/2000/svg">
<path d="M89.9267 29.8184C88.7628 29.4413 87.5895 29.0919 86.4068 28.7702C86.6016 28.017 86.7828 27.2599 86.9506 26.4989C89.6152 14.2676 87.8728 4.41398 81.9224 1.17104C76.2167 -1.94045 66.8854 1.30415 57.459 9.05627C56.5298 9.82388 55.6222 10.6115 54.7364 11.419C54.1415 10.881 53.5373 10.3536 52.9236 9.83664C43.0485 1.54542 33.1558 -1.94711 27.2036 1.30582C21.5031 4.42563 19.8118 13.6886 22.2142 25.281C22.4488 26.4291 22.7181 27.5705 23.022 28.7053C21.6228 29.0813 20.2694 29.4823 18.9741 29.9099C7.39534 33.7186 0 39.7086 0 45.9133C0 52.321 7.93916 58.7487 20.0001 62.6455C20.9787 62.9594 21.9643 63.2512 22.9569 63.5207C22.6354 64.7409 22.3491 65.9711 22.098 67.2113C19.8101 78.6023 21.5982 87.6473 27.2828 90.7471C33.1558 93.9518 43.0116 90.6573 52.6068 82.7271C53.3654 82.0998 54.1257 81.4343 54.8948 80.7388C55.8546 81.614 56.8395 82.4637 57.8498 83.2879C67.1458 90.8503 76.3293 93.9052 82.0069 90.7954C87.8728 87.5857 89.7789 77.8685 87.3044 66.0482C87.1166 65.1452 86.8978 64.224 86.6479 63.2845C87.3413 63.0914 88.0195 62.8912 88.6824 62.6838C101.22 58.757 109.379 52.4075 109.379 45.9133C109.379 39.6853 101.745 33.6637 89.932 29.8184H89.9267Z" fill="#00FFC2"/>
<path d="M88.7634 58.4193C88.165 58.6073 87.5526 58.787 86.926 58.9634C85.3973 54.4827 83.5468 50.1058 81.3874 45.8635C83.4645 41.6777 85.2431 37.3652 86.7113 32.9549C87.8289 33.2611 88.9165 33.5839 89.9619 33.925C100.083 37.2179 106.257 42.0881 106.257 45.8418C106.257 49.8352 99.5889 55.0282 88.7634 58.4193ZM84.272 66.8353C85.3667 72.0616 85.5216 76.7871 84.8 80.4793C84.1488 83.7988 82.8394 86.0117 81.2202 86.8986C77.7725 88.7838 70.4018 86.3329 62.4521 79.8653C61.5404 79.1232 60.6235 78.3328 59.7013 77.4942C63.0156 74.0251 66.0784 70.3484 68.8689 66.4892C73.8533 66.0899 78.8028 65.3672 83.6824 64.3261C83.9053 65.178 84.103 66.01 84.2755 66.822L84.272 66.8353ZM38.844 86.5758C35.4755 87.7006 32.7933 87.7322 31.1724 86.8487C27.7229 84.9668 26.2885 77.6972 28.2456 67.9634C28.4802 66.8131 28.746 65.6689 29.0428 64.5308C33.9022 65.5172 38.8267 66.1915 43.7825 66.5491C46.6545 70.3948 49.7911 74.0578 53.1718 77.5142C52.4925 78.1365 51.7979 78.7416 51.088 79.3295C46.8448 82.837 42.591 85.3195 38.844 86.5758ZM23.0678 58.3943C17.7333 56.6705 13.3299 54.4309 10.3099 51.9883C7.59776 49.7919 6.22852 47.6106 6.22852 45.8418C6.22852 42.0764 12.1666 37.2728 22.0681 34.0098C23.3118 33.6005 24.5667 33.2273 25.8327 32.89C27.3034 37.3491 29.0842 41.7114 31.1636 45.9483C29.0584 50.2461 27.2558 54.6706 25.7675 59.193C24.8594 58.9478 23.9595 58.6816 23.0678 58.3943ZM28.3564 24.3609C26.3008 14.4291 27.6648 6.93652 31.1002 5.05964C34.7592 3.06296 42.8497 5.91156 51.3784 13.0713C51.924 13.5289 52.4714 14.0081 53.0187 14.5023C49.6621 17.9376 46.5502 21.5795 43.7033 25.4042C38.7943 25.8204 33.919 26.5368 29.1079 27.5489C28.8275 26.4929 28.577 25.4308 28.3564 24.3626V24.3609ZM75.5426 35.3742C74.4737 33.6283 73.3655 31.9045 72.2181 30.2028C75.7081 30.6205 79.0502 31.1729 82.19 31.8518C81.1824 34.8734 80.0141 37.8451 78.6894 40.7553C77.6792 38.9417 76.6303 37.148 75.5426 35.3742ZM56.2957 17.6587C58.5702 20.0031 60.7183 22.4544 62.7319 25.0032C58.4247 24.8113 54.1157 24.8113 49.805 25.0032C51.9293 22.3542 54.1064 19.8917 56.2957 17.6604V17.6587ZM36.9362 35.4042C35.8627 37.1646 34.8331 38.9472 33.8475 40.752C32.4871 37.702 31.3237 34.702 30.3734 31.8052C33.4938 31.1396 36.8218 30.6055 40.2889 30.1945C39.125 31.9072 38.0063 33.6438 36.9327 35.4042H36.9362ZM40.3875 61.802C37.0034 61.4547 33.6404 60.9432 30.3118 60.2695C31.278 57.3228 32.4677 54.2579 33.8581 51.1414C34.8472 52.9484 35.8803 54.7321 36.9573 56.4925C38.0532 58.2884 39.1954 60.0582 40.384 61.802H40.3875ZM56.4277 74.3361C54.2102 72.0832 52.0014 69.5874 49.8473 66.8902C51.9416 66.9689 54.0747 67.0083 56.2465 67.0083C58.4757 67.0083 60.6763 66.9617 62.8481 66.8686C60.8433 69.46 58.6992 71.9525 56.4242 74.3361H56.4277ZM78.7246 50.9833C80.1179 53.9525 81.3468 56.9882 82.4064 60.0782C79.0366 60.795 75.6294 61.3443 72.1987 61.7238C73.3544 59.99 74.4737 58.2357 75.5567 56.4609C76.6573 54.6572 77.7132 52.8313 78.7246 50.9833ZM71.5088 54.2545C69.8521 56.9744 68.1033 59.6422 66.2624 62.2579C63.017 62.4775 59.6643 62.5907 56.2465 62.5907C52.8286 62.5907 49.5322 62.4908 46.3432 62.2945C44.4553 59.6877 42.6725 57.016 40.9947 54.2795C39.3169 51.5429 37.7616 48.7653 36.329 45.9467C37.7687 43.1147 39.3192 40.336 40.9806 37.6105C42.6397 34.8862 44.4072 32.2239 46.2834 29.6238C49.5375 29.3909 52.8709 29.2694 56.2429 29.2694C59.615 29.2694 62.9695 29.3925 66.2201 29.6255C68.0751 32.2178 69.8351 34.8695 71.5 37.5806C73.1649 40.2916 74.7366 43.0576 76.2149 45.8785C74.7542 48.7204 73.1872 51.5102 71.5141 54.2479L71.5088 54.2545ZM81.1481 4.92653C84.8105 6.92322 86.2343 14.9765 83.9341 25.5373C83.7827 26.2239 83.6185 26.9089 83.4413 27.5922C78.6232 26.5595 73.738 25.8297 68.8178 25.4075C65.9983 21.5794 62.9097 17.935 59.5728 14.499C60.3941 13.7513 61.2324 13.0242 62.0878 12.3176C70.1624 5.67362 77.7091 3.05132 81.1481 4.92653Z" fill="#282E2F"/>
<path d="M54.6872 36.6787C56.6191 36.6787 58.5076 37.2203 60.1139 38.235C61.7202 39.2497 62.9721 40.6919 63.7114 42.3793C64.4507 44.0668 64.6441 45.9235 64.2672 47.7149C63.8904 49.5062 62.9601 51.1517 61.594 52.4432C60.228 53.7347 58.4875 54.6142 56.5928 54.9705C54.698 55.3268 52.7341 55.1439 50.9492 54.445C49.1644 53.746 47.6389 52.5624 46.5656 51.0438C45.4923 49.5252 44.9194 47.7397 44.9194 45.9133C44.9192 44.7005 45.1717 43.4996 45.6625 42.3791C46.1533 41.2586 46.8728 40.2405 47.7798 39.3829C48.6869 38.5254 49.7638 37.8452 50.9489 37.3812C52.1341 36.9171 53.4044 36.6784 54.6872 36.6787Z" fill="#00FFC2"/>
</svg>
