<svg width="36" height="37" viewBox="0 0 36 37" fill="none" xmlns="http://www.w3.org/2000/svg">
<path d="M4 0C1.79 0 0 1.83972 0 4.11111V32.8889C0 35.1603 1.79 37 4 37H32C34.21 37 36 35.1603 36 32.8889V4.11111C36 1.83972 34.21 0 32 0H4ZM4 4.11111H32V32.8889H4V4.11111ZM9.55859 6.81706C7.84459 6.81706 6.81641 7.87602 6.81641 9.28613C6.81641 10.6962 7.84472 11.7512 9.38672 11.7512C11.1007 11.7512 12.1289 10.6962 12.1289 9.28613C12.1289 7.87602 11.1006 6.81706 9.55859 6.81706ZM6.95312 14.3889V28.7778H12V14.3889H6.95312ZM16.1641 14.3889V28.7778H21.2109V20.9129C21.2109 18.5716 22.8362 18.235 23.3242 18.235C23.8122 18.235 25.1172 18.7381 25.1172 20.9129V28.7778H30V20.9129C30 16.3968 28.0475 14.3889 25.6055 14.3889C23.1635 14.3889 21.8609 15.2246 21.2109 16.3963V14.3889H16.1641Z" fill="#00FFC2"/>
</svg>
