<svg width="38" height="37" viewBox="0 0 38 37" fill="none" xmlns="http://www.w3.org/2000/svg">
<path d="M38 4.37962C36.6014 5.12386 35.099 5.62469 33.522 5.85058C35.1326 4.69483 36.3675 2.86488 36.9492 0.682948C35.4439 1.7529 33.7749 2.53041 31.9977 2.95068C30.5757 1.13474 28.5501 0 26.3081 0C22.0026 0 18.5126 4.18349 18.5126 9.34062C18.5126 10.0726 18.5827 10.7871 18.7143 11.4683C12.2355 11.0795 6.4919 7.36007 2.64528 1.70737C1.97592 3.08727 1.59155 4.69132 1.59155 6.4057C1.59155 9.64532 2.96681 12.5049 5.05819 14.179C3.78085 14.13 2.57805 13.7097 1.52725 13.011C1.52725 13.0513 1.52725 13.0881 1.52725 13.1284C1.52725 17.6551 4.21345 21.4305 7.78093 22.2869C7.12765 22.5005 6.43783 22.6143 5.72609 22.6143C5.2248 22.6143 4.7352 22.5548 4.26022 22.448C5.25257 26.1586 8.13169 28.8607 11.5428 28.936C8.87558 31.4419 5.51417 32.9356 1.86047 32.9356C1.23203 32.9356 0.6109 32.8918 0 32.8043C3.45056 35.4537 7.54709 37 11.9505 37C26.2906 37 34.13 22.7667 34.13 10.4228C34.13 10.0183 34.1227 9.61555 34.1081 9.21454C35.6324 7.89592 36.955 6.2516 38 4.37962Z" fill="#00FFC2"/>
</svg>
