<svg width="42" height="42" viewBox="0 0 42 42" fill="none" xmlns="http://www.w3.org/2000/svg">
<path d="M10 0C4.48867 0 0 4.48867 0 10V32C0 37.5113 4.48867 42 10 42H32C37.5113 42 42 37.5113 42 32V10C42 4.48867 37.5113 0 32 0H10ZM10 2H32C36.4307 2 40 5.56933 40 10V32C40 36.4307 36.4307 40 32 40H10C5.56933 40 2 36.4307 2 32V10C2 5.56933 5.56933 2 10 2ZM9 11C7.35503 11 6 12.355 6 14V28C6 29.645 7.35503 31 9 31H33C34.645 31 36 29.645 36 28V14C36 12.355 34.645 11 33 11H9ZM9.41406 13H32.584L23.6777 21.8926C22.1849 23.383 19.7968 23.3828 18.3047 21.8906L9.41406 13ZM34 14.4121V27.5879L27.4023 21L34 14.4121ZM8 14.4141L14.5859 21L8 27.5859V14.4141ZM25.9883 22.4121L32.5859 29H9.41406L16 22.4141L16.8906 23.3047C19.1465 25.5605 22.8326 25.5622 25.0898 23.3086L25.9883 22.4121Z" fill="#00FFC2"/>
</svg>
