<svg width="227" height="227" viewBox="0 0 227 227" fill="none" xmlns="http://www.w3.org/2000/svg">
<path d="M226.91 113.678C226.855 142.004 216.205 169.285 197.055 190.157C177.905 211.03 151.64 223.983 123.423 226.472C95.206 228.96 67.079 220.804 44.5713 203.605C22.0636 186.407 6.8034 161.411 1.79083 133.532C-3.22173 105.653 2.37594 76.907 17.4833 52.9457C32.5907 28.9844 56.115 11.541 83.4314 4.04495C110.748 -3.45115 139.88 -0.457729 165.102 12.4367C190.323 25.3311 209.808 47.1938 219.727 73.7266C219.975 74.3928 220.216 75.059 220.451 75.7317V75.7381C221.498 78.6951 222.42 81.7071 223.217 84.7742C225.677 94.2116 226.918 103.925 226.91 113.678V113.678Z" fill="#282E2F"/>
<path d="M100.195 36.6155C95.0616 33.8397 89.3625 32.2728 83.5319 32.0342C77.7013 31.7957 71.8932 32.8918 66.5507 35.239C61.8467 37.2862 56.8935 40.9586 55.3242 47.5904C61.6709 43.8448 69.8866 49.7628 71.5197 59.2565L71.1385 59.3617C70.2759 65.9374 72.2015 73.0967 75.9296 77.174C76.2068 75.3342 76.8903 73.5793 77.9304 72.0366C78.9706 70.494 80.3413 69.2024 81.9429 68.2556C84.682 66.455 87.7122 65.147 89.8029 62.052C92.2814 58.3828 92.9108 53.0204 93.8954 48.1284C94.8799 43.2365 96.748 37.9786 100.195 36.6155Z" fill="#00FFC2"/>
<path d="M66.3715 92.2902C64.6138 94.93 62.2659 96.5862 60.1592 98.6485C57.7272 100.861 56.1316 103.843 55.6412 107.094C55.3747 109.391 55.7871 111.727 55.73 114.049C55.673 116.372 54.8987 118.986 53.3187 119.563C50.8249 120.464 48.9212 115.832 46.3577 115.509C44.3207 115.255 42.4869 118.459 43.077 121.239C43.6671 124.018 46.4402 125.249 48.0329 123.434C49.4733 125.852 48.458 130.237 46.2942 130.979C46.0657 132.502 45.8373 134.018 45.6152 135.541C40.1453 131.715 34.6184 127.825 29.9672 122.222C24.7941 116.043 21.5856 108.46 20.7534 100.444C20.1505 94.0035 21.0452 86.6363 18.0884 81.6805C15.7214 77.7145 11.6602 76.8388 8.00519 77.0863C7.33893 77.1307 6.66638 77.2068 6 77.2893C8.1555 70.8153 10.8931 64.5499 14.1793 58.5699C14.923 58.2507 15.614 57.8207 16.2289 57.2944C19.6301 54.4073 21.1404 48.563 23.9006 44.5208C24.0784 44.2607 24.2624 44.0069 24.4527 43.7594C27.2766 40.0726 31.0584 38.1753 34.7134 36.4112C42.804 32.4834 51.1293 28.5047 59.6705 29.0504L57.2401 29.2852C54.4037 37.2298 51.5651 45.1745 48.7244 53.1191C48.2928 54.3374 47.8571 55.5578 47.4172 56.7805C45.8054 61.2985 44.1429 66.1085 44.3904 71.1659C44.5364 74.1609 45.577 77.3591 47.5568 78.3871C49.4034 79.3389 51.4213 78.1713 53.2043 77.0164C53.9595 76.5341 54.7083 76.0518 55.4633 75.5632C58.1728 73.8182 61.1743 72.0287 64.0361 73.1963C66.6568 74.2623 68.5922 77.8223 68.9602 81.6613C69.2978 85.3932 68.3873 89.1315 66.3715 92.2902Z" fill="#00FFC2"/>
<path d="M80.7833 146.813C72.8697 141.94 64.9562 137.068 57.0427 132.195L57.1769 131.849C52.2567 133.723 50.2139 142.469 51.0271 149.622C51.8403 156.774 54.5974 163.168 55.9903 170.137C57.8685 179.674 57.1596 189.54 53.9373 198.71C64.3431 187.035 73.5521 174.345 81.4263 160.832C82.5263 159.129 83.3645 157.27 83.9128 155.318C84.4937 153.238 84.2867 151.017 83.3315 149.08C82.6837 148.124 81.8079 147.345 80.7833 146.813V146.813Z" fill="#00FFC2"/>
<path d="M49.5505 58.1684C48.6213 60.1637 48.4781 62.4358 49.1495 64.5319C49.9303 66.2207 51.3468 67.5326 53.0904 68.1819L57.4629 70.3493C58.9176 71.0704 60.4856 71.7986 61.9684 71.2054C63.757 70.4898 64.9971 67.6858 64.6764 65.0826C64.3349 62.3125 62.5889 60.407 60.9739 58.7844C58.714 56.5137 56.4541 54.2429 54.1942 51.9722L52.9206 53.5321C51.543 54.8758 50.4035 56.4435 49.5505 58.1684V58.1684Z" fill="#00FFC2"/>
<path d="M203.47 87.782C205.437 88.2452 207.404 88.7084 209.372 89.1715C209.029 95.8154 205.736 101.964 201.319 104.191C199.479 105.118 197.429 105.461 195.906 107.193C194.529 108.767 193.831 111.216 193.19 113.557C192.067 117.644 190.944 121.731 189.821 125.817C188.615 130.221 187.067 135.113 183.932 136.7C181.242 138.064 178.164 136.395 176.096 133.597C174.027 130.798 172.764 127.035 171.539 123.368C171.616 127.365 169.756 131.287 167.123 132.677C164.483 134.066 161.272 132.81 159.508 129.707C158.239 127.48 157.712 124.542 156.469 122.283C155.225 120.024 152.617 118.729 151.259 120.849C150.364 122.257 150.478 124.415 150.034 126.204C149.811 127.392 149.222 128.481 148.351 129.319C147.48 130.157 146.369 130.703 145.174 130.881C144.074 130.856 142.991 130.607 141.991 130.15C140.99 129.693 140.094 129.037 139.355 128.222C135.469 124.247 132.939 119.146 132.127 113.646C131.577 111.01 131.646 108.281 132.33 105.676C133.111 103.208 134.995 101.304 136.867 101.774C138.098 99.1722 135.668 95.7203 133.479 96.0248C131.283 96.3294 129.564 98.6836 127.761 100.492C125.966 102.301 123.453 103.614 121.644 101.818C121.685 102.475 121.463 103.121 121.027 103.614C120.591 104.107 119.977 104.407 119.32 104.447C119.255 104.451 119.19 104.453 119.125 104.452C117.923 104.107 116.805 103.514 115.845 102.713C111.701 100.13 106.44 101.844 103.496 106.73C105.336 98.8993 108.033 89.914 113.687 88.0737C115.997 87.3186 118.516 87.9405 120.699 86.6333C124.563 84.3173 125.344 75.5667 122.006 71.9562C122.431 75.37 122.349 79.355 120.547 81.6902C118.744 84.0254 114.962 82.5024 115.191 79.0505C115.14 79.536 114.936 79.9928 114.609 80.3555C114.282 80.7182 113.849 80.9681 113.372 81.0696C112.894 81.171 112.397 81.1187 111.951 80.9201C111.505 80.7216 111.133 80.387 110.889 79.9642C109.689 78.1368 109.791 75.148 110.641 72.9651C111.518 70.9881 112.775 69.2028 114.341 67.711C117.355 64.4812 120.413 61.2132 123.904 59.1826C127.4 57.152 131.436 56.4667 134.938 58.4846C136.785 59.5506 138.409 61.3274 140.294 62.2665C140.737 62.5413 141.23 62.7262 141.744 62.8106C142.258 62.895 142.784 62.8773 143.292 62.7585C143.799 62.6396 144.278 62.422 144.701 62.118C145.125 61.814 145.484 61.4296 145.759 60.9868L145.759 60.9867C145.78 60.9525 145.801 60.918 145.821 60.8832C147.223 58.4211 146.563 54.7661 147.084 51.6885C148.017 46.2504 153.455 43.7058 156.469 47.2974C154.216 46.72 151.887 49.385 151.608 52.615C151.323 55.8448 152.953 59.1065 155.136 60.0837C158.804 61.7081 162.396 57.6215 165.169 53.8396C168.062 49.88 170.96 45.9226 173.862 41.9672C174.325 41.2937 174.845 40.6611 175.417 40.0762C176.325 39.1903 177.537 38.683 178.806 38.657C180.075 38.6311 181.306 39.0886 182.251 39.9367C185.182 42.3289 186.559 47.234 188.964 50.6098C192.454 55.5149 197.677 56.7079 202.537 57.6597C206.161 58.3641 209.786 59.0726 213.414 59.7854C215.832 64.284 217.941 68.9419 219.728 73.7267C213.075 76.76 207.433 81.638 203.47 87.782V87.782Z" fill="#00FFC2"/>
<path d="M215.184 164.132C212.465 169.652 209.303 174.942 205.729 179.951C203.445 178.974 200.989 180.719 198.851 182.356C196.617 184.069 193.933 185.738 191.642 184.177C189.301 182.578 188.545 178.104 189.288 174.557C190.141 171.285 191.634 168.214 193.679 165.521C195.583 162.678 197.619 159.728 200.266 158.624C202.918 157.519 206.326 159.08 207.1 162.85L208.978 162.786C207.925 161.339 208.477 158.344 209.892 157.818C211.523 157.202 212.938 159.442 213.902 161.422C214.334 162.317 214.772 163.218 215.184 164.132Z" fill="#00FFC2"/>
<path d="M143.247 137.328C139.21 137.582 136.012 132.612 133.887 127.723C131.762 122.833 129.823 117.242 126.18 114.753C124.099 113.331 121.726 113.136 119.468 112.447C118.187 112.124 117.002 111.5 116.011 110.627C115.02 109.754 114.251 108.658 113.768 107.428L111.207 106.394C107.624 108.184 104.344 110.524 101.483 113.327C98.2146 116.799 96.1787 121.25 95.6894 125.993C95.2002 131.12 97.0068 136.835 100.382 138.761C103.049 140.283 106.155 139.324 108.856 140.717C112.232 142.457 114.236 147.512 114.994 152.504C115.753 157.496 115.561 162.683 116.104 167.732C116.646 172.78 118.142 178.033 121.238 180.62C125.111 183.858 130.796 181.167 132.533 175.274C133.386 172.383 133.357 169.122 133.994 166.121C135.117 160.836 138.147 156.916 140.55 152.581C142.953 148.246 144.845 142.359 143.247 137.328Z" fill="#00FFC2"/>
<path d="M103.354 85.4019C103.73 85.7485 104.081 86.1215 104.405 86.518C104.74 87.0953 104.911 87.753 104.899 88.4202C104.888 89.0875 104.695 89.739 104.34 90.3045C104.827 90.2768 105.302 90.1486 105.736 89.9279C106.17 89.7072 106.554 89.3988 106.863 89.0223C107.6 88.1831 108.248 87.27 108.797 86.2976C109.056 85.9646 109.24 85.5804 109.338 85.1706C109.437 84.7608 109.447 84.3348 109.368 83.9208C109.177 83.3765 108.726 83.1444 108.41 82.735C107.971 81.9347 107.672 81.0657 107.525 80.1652C107.35 79.3211 106.942 78.5427 106.349 77.9174C105.756 77.292 105 76.8446 104.166 76.6252L104.368 76.6639C104.024 76.8683 103.752 77.1753 103.591 77.5419C103.43 77.9085 103.387 78.3163 103.469 78.7083C103.592 79.5001 104.101 80.1575 104.05 80.9651C103.977 82.1264 102.817 82.6714 102.745 83.8329C102.734 84.4155 102.952 84.9792 103.354 85.4019V85.4019Z" fill="#00FFC2"/>
<path d="M96.4365 65.6671L96.4545 65.6636C96.5787 65.5504 96.6939 65.4277 96.799 65.2966L96.4365 65.6671Z" fill="#00FFC2"/>
<path d="M97.6471 71.1182C98.132 70.6927 98.4907 70.1422 98.684 69.5267C98.8773 68.9112 98.8977 68.2544 98.7431 67.628C98.4498 66.3076 97.4118 65.4198 96.4543 65.6636C96.1766 65.9452 95.8318 66.1516 95.4523 66.2633C95.0729 66.375 94.6713 66.3884 94.2853 66.3022C93.6934 66.1498 93.0435 65.7574 92.53 66.2034C92.2363 66.5365 92.0308 66.9378 91.9322 67.3708C91.7422 67.9542 91.5521 68.5374 91.3621 69.1207C91.2718 69.3295 91.2483 69.5611 91.2947 69.7838C91.3311 69.873 91.3898 69.9514 91.4653 70.0114C91.5407 70.0714 91.6303 70.1109 91.7255 70.1263L95.1459 71.1346C95.5385 71.3155 95.9661 71.4078 96.3983 71.405C96.8306 71.4021 97.2569 71.3042 97.6471 71.1182V71.1182Z" fill="#00FFC2"/>
<path d="M183.719 146.376C183.192 145.513 182.665 144.65 182.138 143.787C181.62 142.788 180.913 141.899 180.054 141.171C179.679 140.857 179.194 140.704 178.707 140.747C178.219 140.79 177.768 141.025 177.454 141.401L177.454 141.401L177.426 141.434L177.49 141.927C178.902 143.44 179.863 145.317 180.267 147.346C180.388 148.227 180.346 149.14 180.451 150.026C180.462 150.436 180.554 150.841 180.722 151.216C180.889 151.591 181.129 151.929 181.428 152.212C182.257 152.766 183.232 151.949 183.823 150.951C184.35 150.132 184.587 149.159 184.495 148.189C184.363 147.538 184.099 146.92 183.719 146.376V146.376Z" fill="#00FFC2"/>
<path d="M191.987 147.499C192.087 146.691 192.021 145.871 191.794 145.089C191.756 144.032 192.036 142.988 192.598 142.091C193.157 141.246 193.58 140.318 193.852 139.342C193.967 138.897 193.946 138.429 193.792 137.996C193.618 137.604 193.195 137.425 192.953 137.736L193.472 138.07C192.771 137.945 192.052 137.98 191.367 138.172C190.976 138.321 190.627 138.563 190.349 138.876C190.071 139.189 189.873 139.564 189.771 139.97C189.686 140.603 189.546 141.227 189.353 141.836C189.043 142.472 188.445 142.683 188.068 143.241C187.812 143.736 187.682 144.287 187.691 144.845C187.701 145.402 187.848 145.948 188.121 146.434C188.594 147.229 189.345 147.82 190.229 148.092C190.863 148.319 191.697 148.331 191.987 147.499Z" fill="#00FFC2"/>
<path d="M206.71 151.941C206.939 152.537 207.246 153.1 207.622 153.615C208.327 154.325 209.285 153.889 210.14 153.716C210.916 153.594 211.711 153.684 212.44 153.976C213.169 154.269 213.805 154.753 214.282 155.378C213.95 153.724 213.226 152.174 212.171 150.857C211.116 149.541 209.761 148.497 208.219 147.814C206.215 147.12 204.104 146.79 201.984 146.839L201.622 146.931C202.544 149.617 205.442 149.557 206.71 151.941Z" fill="#00FFC2"/>
<path d="M144.352 157.434L144.357 157.446L144.462 157.243L144.352 157.434Z" fill="#00FFC2"/>
<path d="M142.118 161.758C141.631 162.642 141.212 163.562 140.865 164.51C140.406 166.046 140.101 167.624 139.957 169.22C139.844 170.128 139.809 171.287 140.377 171.73C140.541 171.838 140.738 171.883 140.932 171.857C141.126 171.831 141.304 171.735 141.433 171.587C141.749 171.252 142.007 170.868 142.198 170.449C143.315 168.524 144.183 166.465 144.78 164.32C145.403 162.045 145.254 159.628 144.357 157.446C143.611 158.884 142.865 160.321 142.118 161.758Z" fill="#00FFC2"/>
<path d="M120.571 46.5761C120.926 46.9228 121.375 47.1583 121.861 47.2533C122.348 47.3483 122.852 47.2988 123.312 47.1109C124.262 46.6952 125.135 46.1191 125.89 45.4077C126.516 44.9448 127.047 44.3659 127.453 43.7025C127.678 43.3061 127.821 42.8693 127.876 42.4172C127.931 41.9651 127.896 41.5066 127.773 41.068C127.598 40.6478 127.319 40.2792 126.963 39.9969C126.606 39.7146 126.183 39.5279 125.734 39.4546C124.468 39.0792 123.203 38.704 121.937 38.3288L122.852 37.5037C121.911 36.9982 120.869 37.9363 120.28 39.0978C119.902 39.8562 119.639 40.6663 119.499 41.5018C119.299 42.3747 119.291 43.2808 119.476 44.1571C119.661 45.0333 120.035 45.8588 120.571 46.5761V46.5761Z" fill="#00FFC2"/>
<path d="M142.913 39.0753C143.27 39.4685 143.763 39.7113 144.292 39.7544C144.821 39.7974 145.347 39.6375 145.763 39.3071C146.12 39.0385 146.417 38.6975 146.634 38.3065C146.852 37.9154 146.984 37.4829 147.023 37.0373C147.112 36.0418 146.62 34.9355 145.917 34.8495L146.078 33.9174C144.724 33.6729 143.058 33.6239 142.332 35.2684C142.087 35.8983 142.012 36.5814 142.114 37.2495C142.216 37.9176 142.492 38.5472 142.913 39.0753V39.0753Z" fill="#00FFC2"/>
</svg>
